<?xml version="1.0" standalone="no"?>
<!DOCTYPE svg PUBLIC "-//W3C//DTD SVG 20010904//EN"
 "http://www.w3.org/TR/2001/REC-SVG-20010904/DTD/svg10.dtd">
<svg version="1.0" xmlns="http://www.w3.org/2000/svg"
 width="1200.000000pt" height="1268.000000pt" viewBox="0 0 1200.000000 1268.000000"
 preserveAspectRatio="xMidYMid meet">
<metadata>
Created by potrace 1.16, written by Peter Selinger 2001-2019
</metadata>
<g transform="translate(0.000000,1268.000000) scale(0.100000,-0.100000)"
fill="#000000" stroke="none">
<path d="M1366 12669 c-514 -75 -965 -399 -1197 -859 -119 -238 -169 -449
-169 -725 0 -269 42 -453 155 -692 126 -264 307 -473 557 -642 181 -122 427
-216 655 -250 92 -14 349 -14 449 0 253 35 499 135 714 289 250 179 436 420
553 715 81 203 113 402 104 649 -9 240 -49 407 -152 621 -45 94 -143 259 -164
275 -3 3 -18 21 -32 40 -37 50 -164 178 -229 231 -220 181 -523 313 -800 349
-91 11 -362 11 -444 -1z"/>
<path d="M7485 8754 c-1746 -93 -3102 -1074 -3691 -2669 -325 -879 -382 -1987
-149 -2889 258 -997 844 -1821 1702 -2395 1080 -722 2583 -974 3875 -651 689
173 1325 497 1847 944 59 50 158 142 221 206 125 124 312 338 308 351 -2 6
-837 622 -1691 1247 l-49 35 -86 -94 c-503 -551 -1011 -823 -1630 -870 -185
-15 -394 -1 -580 36 -702 143 -1226 638 -1445 1365 -19 63 -38 130 -42 148
l-7 32 2929 0 2929 0 13 93 c34 251 42 355 48 622 8 400 -18 740 -83 1080
-170 887 -563 1652 -1149 2240 -297 298 -616 528 -995 719 -482 241 -981 381
-1560 436 -119 11 -592 20 -715 14z m599 -2069 c563 -74 990 -372 1234 -861
47 -93 122 -296 122 -329 0 -13 -195 -15 -1629 -15 l-1629 0 20 73 c74 262
206 487 402 683 253 253 552 397 927 448 141 19 411 20 553 1z"/>
<path d="M310 4385 l0 -4155 1280 0 1280 0 0 4155 0 4155 -1280 0 -1280 0 0
-4155z"/>
</g>
</svg>
