<?xml version="1.0" standalone="no"?>
<!DOCTYPE svg PUBLIC "-//W3C//DTD SVG 20010904//EN"
 "http://www.w3.org/TR/2001/REC-SVG-20010904/DTD/svg10.dtd">
<svg version="1.0" xmlns="http://www.w3.org/2000/svg"
 width="415.000000pt" height="351.000000pt" viewBox="0 0 415.000000 351.000000"
 preserveAspectRatio="xMidYMid meet">
<metadata>
Created by potrace 1.16, written by Peter Selinger 2001-2019
</metadata>
<g transform="translate(0.000000,351.000000) scale(0.100000,-0.100000)"
fill="#000000" stroke="none">
<path d="M760 3020 l0 -390 233 0 232 0 -1 67 -2 68 -156 3 -156 3 0 319 0
320 -75 0 -75 0 0 -390z"/>
<path d="M2670 3219 c-145 -25 -224 -154 -206 -338 11 -123 51 -195 130 -239
40 -22 228 -24 299 -3 l47 14 0 54 c0 42 -3 54 -14 50 -34 -13 -194 -18 -233
-8 -47 13 -83 51 -83 87 l0 24 174 0 173 0 6 58 c7 68 -5 168 -26 208 -41 79
-142 114 -267 93z m134 -132 c11 -8 20 -31 23 -60 l6 -47 -112 0 -111 0 0 25
c0 31 24 81 42 88 27 11 135 7 152 -6z"/>
<path d="M1420 3213 c-14 -2 -40 -9 -57 -14 -31 -10 -33 -13 -33 -60 l0 -50
103 7 c166 10 207 -10 207 -102 l0 -34 -42 7 c-84 15 -190 9 -227 -12 -58 -34
-75 -67 -79 -148 -4 -85 14 -129 68 -165 31 -21 44 -23 120 -20 64 2 96 9 127
25 41 22 42 22 48 3 5 -17 16 -20 66 -20 l59 0 0 211 c0 117 -5 229 -11 253
-12 50 -48 93 -95 112 -32 13 -191 18 -254 7z m218 -399 c4 -54 -10 -64 -101
-71 -70 -5 -75 -4 -91 18 -20 29 -20 48 0 77 15 21 22 23 102 20 l87 -3 3 -41z"/>
<path d="M1852 3198 c3 -7 47 -138 99 -290 92 -271 95 -278 121 -278 l26 0
-16 -42 c-30 -79 -48 -98 -97 -98 -67 0 -75 -6 -75 -56 0 -39 3 -46 26 -54 14
-6 54 -10 89 -10 54 0 68 4 95 26 17 15 40 44 51 65 16 32 124 333 244 682
l24 67 -78 0 -77 0 -68 -210 c-37 -115 -69 -210 -71 -210 -3 0 -35 95 -72 210
l-67 210 -79 0 c-59 0 -78 -3 -75 -12z"/>
<path d="M3060 2920 l0 -290 75 0 75 0 0 209 0 209 33 5 c17 3 62 9 100 13
l67 6 0 71 0 70 -56 -6 c-31 -3 -78 -16 -105 -29 l-47 -24 -6 28 c-5 27 -7 28
-71 28 l-65 0 0 -290z"/>
<path d="M510 2303 c-23 -9 -60 -45 -76 -75 -10 -18 -14 -62 -14 -137 l0 -110
143 2 142 2 3 105 c3 120 -10 158 -68 198 -32 21 -93 28 -130 15z"/>
<path d="M1089 2287 c-55 -37 -69 -76 -69 -200 l0 -108 143 3 142 3 3 103 c3
120 -10 159 -67 198 -47 31 -106 32 -152 1z"/>
<path d="M1705 2301 c-28 -12 -62 -51 -74 -84 -6 -16 -11 -73 -11 -127 0 -119
-11 -112 165 -108 l120 3 3 95 c4 112 -7 156 -48 195 -23 22 -40 29 -82 32
-29 1 -62 -1 -73 -6z"/>
<path d="M2289 2287 c-55 -37 -69 -76 -69 -200 l0 -108 143 3 142 3 3 105 c2
84 -1 112 -15 140 -25 48 -76 80 -128 80 -27 0 -54 -8 -76 -23z"/>
<path d="M2894 2292 c-17 -11 -41 -36 -53 -55 -19 -32 -21 -47 -19 -144 l3
-108 143 -3 142 -3 0 111 c0 119 -8 146 -54 189 -36 34 -118 40 -162 13z"/>
<path d="M3491 2288 c-59 -40 -72 -78 -69 -198 l3 -105 143 -3 144 -3 -4 126
-3 125 -37 36 c-31 32 -45 38 -90 42 -44 3 -59 0 -87 -20z"/>
<path d="M270 298 l0 -188 1795 0 1795 0 0 185 0 185 -1795 2 -1795 3 0 -187z"/>
</g>
</svg>
